# Blender v2.79 (sub 0) OBJ File: 'colors.blend'
# www.blender.org
v -0.050453 -0.006384 -0.000916
v 0.037840 -0.006384 -0.034249
v -0.025227 -0.007610 0.040097
v -0.037840 -0.006384 -0.034249
v 0.025227 -0.007610 0.040097
v 0.050453 -0.006384 -0.000916
v -0.050453 0.006219 -0.000916
v 0.037840 0.006219 -0.034249
v -0.025227 0.010348 0.040097
v -0.037840 0.006219 -0.034249
v 0.025227 0.010348 0.040097
v 0.050453 0.006219 -0.000916
v -0.037840 0.000643 0.069950
v 0.018920 0.000643 -0.043089
v 0.037840 0.000643 0.069950
v -0.075680 -0.001534 0.008430
v -0.056760 -0.001534 -0.041570
v 0.075680 -0.001534 0.008430
v 0.056760 -0.001534 -0.041570
v -0.018920 0.000643 -0.043089
v -0.034687 -0.005240 0.062486
v -0.052030 -0.004559 -0.039740
v -0.023650 -0.004934 -0.040879
v -0.069373 -0.004559 0.006094
v -0.000000 -0.008223 0.041763
v 0.034687 -0.005240 0.062486
v 0.052030 -0.004559 -0.039740
v 0.023650 -0.004934 -0.040879
v 0.069373 -0.004559 0.006094
v -0.037840 -0.006997 0.013251
v -0.040993 -0.006690 -0.017836
v 0.037840 -0.006997 0.013251
v 0.040993 -0.006690 -0.017836
v -0.034687 0.006889 0.062486
v -0.052030 0.002217 -0.039740
v -0.023650 0.005857 -0.040879
v -0.069373 0.002217 0.006094
v -0.000000 0.012412 0.041763
v 0.034687 0.006889 0.062486
v 0.052030 0.002217 -0.039740
v 0.023650 0.005857 -0.040879
v 0.069373 0.002217 0.006094
v -0.037840 0.008283 0.013251
v -0.040993 0.007251 -0.017836
v 0.037840 0.008283 0.013251
v 0.040993 0.007251 -0.017836
v -0.000000 0.001732 0.088209
v -0.066220 -0.000990 0.036310
v -0.000000 0.001732 -0.031349
v 0.037840 -0.000990 -0.054450
v 0.066220 -0.000990 0.036310
v -0.070950 -0.001534 -0.016570
v -0.037840 -0.000990 -0.054450
v 0.070950 -0.001534 -0.016570
v -0.063461 -0.004635 -0.016886
v -0.037840 -0.003850 -0.046819
v -0.059125 -0.004806 0.030545
v -0.000000 -0.005581 0.076598
v 0.063461 -0.004635 -0.016886
v -0.000000 -0.007639 -0.016095
v 0.037840 -0.003850 -0.046819
v 0.059125 -0.004806 0.030545
v -0.063461 0.002475 -0.016886
v -0.037840 0.002557 -0.046819
v -0.059125 0.003643 0.030545
v -0.000000 0.009226 0.076598
v 0.063461 0.002475 -0.016886
v -0.000000 0.011873 -0.016095
v 0.037840 0.002557 -0.046819
v 0.059125 0.003643 0.030545
vt 0.068304 0.605369
vt 0.071848 0.519744
vt 0.057673 0.559366
vt 0.039955 0.445476
vt 0.029324 0.526316
vt 0.034639 0.591941
vt 0.178158 0.644599
vt 0.160440 0.605369
vt 0.156896 0.638221
vt 0.135634 0.658119
vt 0.156896 0.690773
vt 0.086023 0.439936
vt 0.114372 0.436368
vt 0.071848 0.347171
vt 0.093110 0.658119
vt 0.071848 0.638221
vt 0.050586 0.644599
vt 0.071848 0.690773
vt 0.156896 0.519744
vt 0.142721 0.439936
vt 0.188789 0.445476
vt 0.156896 0.347171
vt 0.171071 0.559366
vt 0.194105 0.591941
vt 0.199420 0.526316
vt 0.071848 0.519744
vt 0.068304 0.605369
vt 0.057673 0.559366
vt 0.043055 0.595298
vt 0.036411 0.534579
vt 0.047928 0.464043
vt 0.160440 0.605369
vt 0.172843 0.643004
vt 0.156896 0.638221
vt 0.156896 0.658658
vt 0.140950 0.653145
vt 0.086023 0.439936
vt 0.075392 0.370363
vt 0.114372 0.436368
vt 0.087794 0.653145
vt 0.071848 0.638221
vt 0.071848 0.658658
vt 0.055901 0.643004
vt 0.156896 0.519744
vt 0.142721 0.439936
vt 0.153352 0.370363
vt 0.180816 0.464043
vt 0.171071 0.559366
vt 0.192333 0.534579
vt 0.185688 0.595298
vt 0.039955 0.445476
vt 0.071848 0.347171
vt 0.114372 0.293653
vt 0.114372 0.293653
vt 0.114372 0.329332
vt 0.156896 0.671066
vt 0.135634 0.658119
vt 0.114372 0.641792
vt 0.156896 0.347171
vt 0.188789 0.445476
vt 0.034639 0.591941
vt 0.029324 0.526316
vt 0.071848 0.671066
vt 0.050586 0.644599
vt 0.199420 0.526316
vt 0.194105 0.591941
vt 0.178158 0.644599
vt 0.093110 0.658119
vt 0.114372 0.641792
vt 0.114372 0.608844
vt 0.156896 0.671066
vt 0.071848 0.671066
vn -0.0486 -0.9982 -0.0349
vn -0.0528 -0.9986 0.0059
vn -0.0768 -0.9970 -0.0043
vn -0.2306 -0.9662 0.1148
vn -0.2932 -0.9560 0.0121
vn -0.2554 -0.9606 -0.1094
vn 0.2539 -0.9282 -0.2719
vn 0.0486 -0.9982 -0.0349
vn 0.0035 -0.9964 -0.0844
vn -0.2425 -0.8823 -0.4033
vn 0.0249 -0.9549 -0.2958
vn -0.0519 -0.9978 0.0412
vn 0.0000 -0.9993 0.0375
vn -0.2351 -0.9209 0.3109
vn 0.2425 -0.8823 -0.4033
vn -0.0035 -0.9964 -0.0844
vn -0.2539 -0.9282 -0.2719
vn -0.0249 -0.9549 -0.2958
vn 0.0528 -0.9986 0.0059
vn 0.0519 -0.9978 0.0412
vn 0.2306 -0.9662 0.1148
vn 0.2351 -0.9209 0.3109
vn 0.0768 -0.9970 -0.0043
vn 0.2554 -0.9606 -0.1094
vn 0.2932 -0.9560 0.0121
vn -0.1479 0.9890 0.0001
vn -0.1526 0.9855 -0.0746
vn -0.1871 0.9821 -0.0175
vn -0.3562 0.9229 -0.1460
vn -0.3891 0.9212 0.0021
vn -0.3297 0.9375 0.1110
vn 0.1526 0.9855 -0.0746
vn 0.3450 0.8809 -0.3240
vn 0.1167 0.9810 -0.1552
vn 0.0611 0.9152 -0.3982
vn -0.1272 0.8439 -0.5212
vn -0.1285 0.9909 0.0387
vn -0.3040 0.9006 0.3106
vn 0.0000 0.9991 0.0421
vn 0.1272 0.8439 -0.5212
vn -0.1167 0.9810 -0.1552
vn -0.0611 0.9152 -0.3982
vn -0.3450 0.8809 -0.3240
vn 0.1479 0.9890 0.0001
vn 0.1285 0.9909 0.0387
vn 0.3040 0.9006 0.3106
vn 0.3297 0.9375 0.1110
vn 0.1871 0.9821 -0.0175
vn 0.3891 0.9212 0.0021
vn 0.3562 0.9229 -0.1460
vn -0.8893 -0.0423 0.4553
vn -0.5887 -0.0150 0.8082
vn 0.0000 -0.9305 0.3662
vn 0.0000 0.0058 1.0000
vn 0.0000 0.9271 0.3749
vn 0.0361 -0.0193 -0.9991
vn -0.4906 0.0185 -0.8712
vn 0.0000 0.0217 -0.9998
vn 0.5887 -0.0150 0.8082
vn 0.8893 -0.0423 0.4553
vn -0.9412 -0.0469 -0.3345
vn -0.9933 -0.0449 0.1068
vn -0.0361 -0.0193 -0.9991
vn -0.7712 -0.0491 -0.6347
vn 0.9933 -0.0449 0.1068
vn 0.9412 -0.0469 -0.3345
vn 0.7712 -0.0491 -0.6347
vn 0.4906 0.0185 -0.8712
vn 0.0000 -0.9872 -0.1597
vn 0.0000 0.9834 -0.1811
s 1
f 31/1/1 30/2/2 1/3/3
f 1/3/3 57/4/4 24/5/5
f 1/3/3 55/6/6 31/1/1
f 27/7/7 33/8/8 2/9/9
f 33/8/8 28/10/10 2/9/9
f 2/9/9 61/11/11 27/7/7
f 3/12/12 57/4/4 30/2/2
f 30/2/2 25/13/13 3/12/12
f 25/13/13 21/14/14 3/12/12
f 23/15/15 31/1/1 4/16/16
f 31/1/1 22/17/17 4/16/16
f 4/16/16 56/18/18 23/15/15
f 25/13/13 32/19/19 5/20/20
f 5/20/20 62/21/21 26/22/22
f 26/22/22 25/13/13 5/20/20
f 6/23/23 62/21/21 32/19/19
f 32/19/19 33/8/8 6/23/23
f 6/23/23 59/24/24 29/25/25
f 43/26/26 44/27/27 7/28/28
f 7/28/28 63/29/29 37/30/30
f 7/28/28 65/31/31 43/26/26
f 46/32/32 40/33/33 8/34/34
f 8/34/34 69/35/35 41/36/36
f 41/36/36 46/32/32 8/34/34
f 9/37/37 65/31/31 34/38/38
f 34/38/38 38/39/39 9/37/37
f 38/39/39 43/26/26 9/37/37
f 44/27/27 36/40/40 10/41/41
f 10/41/41 64/42/42 35/43/43
f 35/43/43 44/27/27 10/41/41
f 45/44/44 38/39/39 11/45/45
f 38/39/39 39/46/46 11/45/45
f 11/45/45 70/47/47 45/44/44
f 12/48/48 70/47/47 42/49/49
f 12/48/48 67/50/50 46/32/32
f 46/32/32 45/44/44 12/48/48
f 48/51/51 21/14/14 13/52/52
f 13/52/52 58/53/53 47/54/54
f 13/52/52 66/55/55 34/38/38
f 34/38/38 48/51/51 13/52/52
f 50/56/56 28/10/10 14/57/57
f 28/10/10 49/58/58 14/57/57
f 49/58/58 41/36/36 14/57/57
f 14/57/57 69/35/35 50/56/56
f 15/59/59 58/53/53 26/22/22
f 26/22/22 51/60/60 15/59/59
f 51/60/60 39/46/46 15/59/59
f 15/59/59 66/55/55 47/54/54
f 52/61/61 24/5/5 16/62/62
f 16/62/62 57/4/4 48/51/51
f 16/62/62 65/31/31 37/30/30
f 37/30/30 52/61/61 16/62/62
f 53/63/63 22/17/17 17/64/64
f 17/64/64 55/6/6 52/61/61
f 17/64/64 63/29/29 35/43/43
f 35/43/43 53/63/63 17/64/64
f 18/65/65 62/21/21 29/25/25
f 29/25/25 54/66/66 18/65/65
f 54/66/66 42/49/49 18/65/65
f 18/65/65 70/47/47 51/60/60
f 19/67/67 59/24/24 27/7/7
f 27/7/7 50/56/56 19/67/67
f 50/56/56 40/33/33 19/67/67
f 19/67/67 67/50/50 54/66/66
f 49/58/58 23/15/15 20/68/68
f 23/15/15 53/63/63 20/68/68
f 20/68/68 64/42/42 36/40/40
f 36/40/40 49/58/58 20/68/68
f 31/1/1 60/69/69 30/2/2
f 1/3/3 30/2/2 57/4/4
f 1/3/3 24/5/5 55/6/6
f 27/7/7 59/24/24 33/8/8
f 33/8/8 60/69/69 28/10/10
f 2/9/9 28/10/10 61/11/11
f 3/12/12 21/14/14 57/4/4
f 30/2/2 60/69/69 25/13/13
f 25/13/13 58/53/53 21/14/14
f 23/15/15 60/69/69 31/1/1
f 31/1/1 55/6/6 22/17/17
f 4/16/16 22/17/17 56/18/18
f 25/13/13 60/69/69 32/19/19
f 5/20/20 32/19/19 62/21/21
f 26/22/22 58/53/53 25/13/13
f 6/23/23 29/25/25 62/21/21
f 32/19/19 60/69/69 33/8/8
f 6/23/23 33/8/8 59/24/24
f 43/26/26 68/70/70 44/27/27
f 7/28/28 44/27/27 63/29/29
f 7/28/28 37/30/30 65/31/31
f 46/32/32 67/50/50 40/33/33
f 8/34/34 40/33/33 69/35/35
f 41/36/36 68/70/70 46/32/32
f 9/37/37 43/26/26 65/31/31
f 34/38/38 66/55/55 38/39/39
f 38/39/39 68/70/70 43/26/26
f 44/27/27 68/70/70 36/40/40
f 10/41/41 36/40/40 64/42/42
f 35/43/43 63/29/29 44/27/27
f 45/44/44 68/70/70 38/39/39
f 38/39/39 66/55/55 39/46/46
f 11/45/45 39/46/46 70/47/47
f 12/48/48 45/44/44 70/47/47
f 12/48/48 42/49/49 67/50/50
f 46/32/32 68/70/70 45/44/44
f 48/51/51 57/4/4 21/14/14
f 13/52/52 21/14/14 58/53/53
f 13/52/52 47/54/54 66/55/55
f 34/38/38 65/31/31 48/51/51
f 50/56/56 61/71/11 28/10/10
f 28/10/10 60/69/69 49/58/58
f 49/58/58 68/70/70 41/36/36
f 14/57/57 41/36/36 69/35/35
f 15/59/59 47/54/54 58/53/53
f 26/22/22 62/21/21 51/60/60
f 51/60/60 70/47/47 39/46/46
f 15/59/59 39/46/46 66/55/55
f 52/61/61 55/6/6 24/5/5
f 16/62/62 24/5/5 57/4/4
f 16/62/62 48/51/51 65/31/31
f 37/30/30 63/29/29 52/61/61
f 53/63/63 56/72/18 22/17/17
f 17/64/64 22/17/17 55/6/6
f 17/64/64 52/61/61 63/29/29
f 35/43/43 64/42/42 53/63/63
f 18/65/65 51/60/60 62/21/21
f 29/25/25 59/24/24 54/66/66
f 54/66/66 67/50/50 42/49/49
f 18/65/65 42/49/49 70/47/47
f 19/67/67 54/66/66 59/24/24
f 27/7/7 61/71/11 50/56/56
f 50/56/56 69/35/35 40/33/33
f 19/67/67 40/33/33 67/50/50
f 49/58/58 60/69/69 23/15/15
f 23/15/15 56/72/18 53/63/63
f 20/68/68 53/63/63 64/42/42
f 36/40/40 68/70/70 49/58/58
