# Blender v2.79 (sub 0) OBJ File: 'colors.blend'
# www.blender.org
o Leaf
v 0.030028 -0.003901 -0.010843
v -0.022273 -0.003901 0.008902
v 0.015085 -0.004627 -0.035137
v 0.022556 -0.003901 0.008902
v -0.014801 -0.004627 -0.035137
v -0.029744 -0.003901 -0.010843
v 0.030028 0.003564 -0.010843
v -0.022273 0.003564 0.008902
v 0.015085 0.006010 -0.035137
v 0.022556 0.003564 0.008902
v -0.014801 0.006010 -0.035137
v -0.029744 0.003564 -0.010843
v 0.022556 0.000261 -0.052821
v -0.011065 0.000261 0.014138
v -0.022273 0.000261 -0.052821
v 0.044971 -0.001028 -0.016380
v 0.033764 -0.001028 0.013238
v -0.044687 -0.001028 -0.016380
v -0.033480 -0.001028 0.013238
v 0.011349 0.000261 0.014138
v 0.020689 -0.003224 -0.048400
v 0.030962 -0.002820 0.012154
v 0.014151 -0.003042 0.012829
v 0.041235 -0.002820 -0.014995
v 0.000142 -0.004990 -0.036125
v -0.020405 -0.003224 -0.048400
v -0.030678 -0.002820 0.012154
v -0.013867 -0.003042 0.012829
v -0.040951 -0.002820 -0.014995
v 0.022556 -0.004264 -0.019235
v 0.024424 -0.004083 -0.000821
v -0.022273 -0.004264 -0.019235
v -0.024141 -0.004083 -0.000821
v 0.020689 0.003961 -0.048400
v 0.030962 0.001194 0.012154
v 0.014151 0.003350 0.012829
v 0.041235 0.001194 -0.014995
v 0.000142 0.007233 -0.036125
v -0.020405 0.003961 -0.048400
v -0.030678 0.001194 0.012154
v -0.013867 0.003350 0.012829
v -0.040951 0.001194 -0.014995
v 0.022556 0.004787 -0.019235
v 0.024424 0.004176 -0.000821
v -0.022273 0.004787 -0.019235
v -0.024141 0.004176 -0.000821
v 0.000142 0.000906 -0.063637
v 0.039367 -0.000706 -0.032894
v -0.022273 -0.000706 0.020867
v -0.039084 -0.000706 -0.032894
v 0.042169 -0.001028 -0.001571
v 0.022556 -0.000706 0.020867
v -0.041885 -0.001028 -0.001571
v 0.037733 -0.002865 -0.001383
v 0.022556 -0.002400 0.016347
v 0.035165 -0.002966 -0.029479
v 0.000142 -0.003425 -0.056759
v -0.037449 -0.002865 -0.001383
v 0.000142 -0.004644 -0.001852
v -0.022273 -0.002400 0.016347
v -0.034881 -0.002966 -0.029479
v 0.037733 0.001346 -0.001383
v 0.022556 0.001395 0.016347
v 0.035165 0.002038 -0.029479
v 0.000142 0.005345 -0.056759
v -0.037449 0.001346 -0.001383
v 0.000142 0.006914 -0.001852
v -0.022273 0.001395 0.016347
v -0.034881 0.002038 -0.029479
v 0.004889 0.003150 0.013304
v -0.003927 0.003193 0.014506
v 0.004211 -0.002655 0.014506
v -0.004606 -0.002607 0.013304
v -0.004715 0.000260 0.017168
v 0.004998 0.000260 0.017168
v 0.006297 0.002643 0.028499
v -0.003846 0.002853 0.029169
v 0.006285 -0.002170 0.029169
v -0.004038 -0.001973 0.028499
v 0.003202 0.002647 0.037996
v -0.006455 0.002761 0.037960
v 0.004996 -0.001919 0.037344
v -0.006429 -0.002033 0.038531
v -0.012584 -0.001554 0.032731
v -0.011577 0.002281 0.032020
v -0.012080 -0.001234 0.036818
v -0.013339 0.001962 0.035929
v 0.016401 -0.001234 0.031487
v 0.018333 0.001962 0.032375
v 0.017174 -0.001554 0.035574
v 0.015629 0.002281 0.036285
v -0.005711 0.002281 0.045015
v -0.010599 0.001962 0.044558
v -0.003812 -0.001554 0.044102
v -0.010638 -0.001234 0.045700
vt 0.433183 0.478444
vt 0.429521 0.595378
vt 0.444170 0.542089
vt 0.454242 0.660433
vt 0.466145 0.568457
vt 0.459278 0.482016
vt 0.327444 0.413529
vt 0.337961 0.478444
vt 0.341624 0.416704
vt 0.358105 0.391765
vt 0.341624 0.369424
vt 0.414871 0.696362
vt 0.385572 0.702632
vt 0.425859 0.780582
vt 0.413040 0.391765
vt 0.429521 0.416704
vt 0.446002 0.396051
vt 0.429521 0.369424
vt 0.341624 0.595378
vt 0.356273 0.696362
vt 0.316903 0.660433
vt 0.345286 0.780582
vt 0.326974 0.542089
vt 0.311867 0.482016
vt 0.305000 0.568457
vt 0.429521 0.595378
vt 0.433183 0.478444
vt 0.444170 0.542089
vt 0.459278 0.482016
vt 0.466145 0.568457
vt 0.454242 0.660433
vt 0.337961 0.478444
vt 0.327444 0.413529
vt 0.341624 0.416704
vt 0.341624 0.369424
vt 0.358105 0.391765
vt 0.414871 0.696362
vt 0.425859 0.780582
vt 0.385572 0.702632
vt 0.413040 0.391765
vt 0.429521 0.416704
vt 0.429521 0.369424
vt 0.446002 0.396051
vt 0.341624 0.595378
vt 0.356273 0.696362
vt 0.345286 0.780582
vt 0.316903 0.660433
vt 0.326974 0.542089
vt 0.305000 0.568457
vt 0.311867 0.482016
vt 0.462482 0.682118
vt 0.429521 0.808655
vt 0.385572 0.833663
vt 0.385572 0.877340
vt 0.385572 0.833663
vt 0.341624 0.340719
vt 0.363598 0.383452
vt 0.341624 0.808655
vt 0.308662 0.682118
vt 0.467976 0.483207
vt 0.473470 0.577246
vt 0.429521 0.340719
vt 0.451495 0.389167
vt 0.297675 0.577246
vt 0.303169 0.483207
vt 0.321950 0.406645
vt 0.407547 0.383452
vt 0.385572 0.484992
vt 0.379155 0.391765
vt 0.386207 0.391765
vt 0.386207 0.391765
vt 0.379155 0.391765
vt 0.385572 0.484992
vt 0.384376 0.383452
vt 0.378851 0.260158
vt 0.385599 0.226063
vt 0.385599 0.226063
vt 0.380987 0.383452
vt 0.378851 0.260158
vt 0.385903 0.210709
vt 0.385903 0.210709
vt 0.456093 0.251274
vt 0.328726 0.291522
vt 0.376416 0.233681
vt 0.328726 0.291522
vt 0.311075 0.267600
vt 0.376416 0.233681
vt 0.311075 0.267600
vt 0.442084 0.280869
vt 0.456093 0.251274
vt 0.442084 0.280869
vt 0.343975 0.145941
vt 0.341499 0.172704
vt 0.343975 0.145941
vt 0.341499 0.172704
vn 0.0486 -0.9982 0.0349
vn 0.0528 -0.9986 -0.0059
vn 0.0768 -0.9970 0.0043
vn 0.2306 -0.9662 -0.1148
vn 0.2932 -0.9560 -0.0121
vn 0.2554 -0.9606 0.1094
vn -0.2539 -0.9282 0.2719
vn -0.0486 -0.9982 0.0349
vn -0.0035 -0.9964 0.0844
vn 0.1367 -0.9004 0.4129
vn -0.0249 -0.9549 0.2958
vn 0.0519 -0.9978 -0.0412
vn 0.0000 -0.9993 -0.0375
vn 0.2351 -0.9209 -0.3109
vn -0.1172 -0.9045 0.4101
vn 0.0035 -0.9964 0.0844
vn 0.2539 -0.9282 0.2719
vn 0.0249 -0.9549 0.2958
vn -0.0528 -0.9986 -0.0059
vn -0.0519 -0.9978 -0.0412
vn -0.2306 -0.9662 -0.1148
vn -0.2351 -0.9209 -0.3109
vn -0.0768 -0.9970 0.0043
vn -0.2554 -0.9606 0.1094
vn -0.2932 -0.9560 -0.0121
vn 0.1479 0.9890 -0.0001
vn 0.1526 0.9855 0.0746
vn 0.1871 0.9821 0.0175
vn 0.3562 0.9229 0.1460
vn 0.3891 0.9212 -0.0021
vn 0.3297 0.9375 -0.1110
vn -0.1526 0.9855 0.0746
vn -0.3450 0.8809 0.3240
vn -0.1167 0.9810 0.1552
vn -0.0611 0.9152 0.3982
vn 0.0034 0.8533 0.5214
vn 0.1285 0.9909 -0.0387
vn 0.3040 0.9006 -0.3106
vn 0.0000 0.9991 -0.0421
vn -0.0246 0.8509 0.5247
vn 0.1167 0.9810 0.1552
vn 0.0611 0.9152 0.3982
vn 0.3450 0.8809 0.3240
vn -0.1479 0.9890 -0.0001
vn -0.1285 0.9909 -0.0387
vn -0.3040 0.9006 -0.3106
vn -0.3297 0.9375 -0.1110
vn -0.1871 0.9821 0.0175
vn -0.3891 0.9212 -0.0021
vn -0.3562 0.9229 0.1460
vn 0.8893 -0.0423 -0.4553
vn 0.5887 -0.0150 -0.8082
vn 0.0000 -0.9305 -0.3662
vn 0.0000 0.0058 -1.0000
vn 0.0000 0.9271 -0.3749
vn -0.0361 -0.0193 0.9991
vn 0.0052 -0.0291 0.9995
vn -0.5887 -0.0150 -0.8082
vn -0.8893 -0.0423 -0.4553
vn 0.9412 -0.0469 0.3345
vn 0.9933 -0.0449 -0.1068
vn 0.0361 -0.0193 0.9991
vn 0.7712 -0.0491 0.6347
vn -0.9933 -0.0449 -0.1068
vn -0.9412 -0.0469 0.3345
vn -0.7712 -0.0491 0.6347
vn -0.0049 0.0793 0.9968
vn 0.0007 0.9952 0.0972
vn -0.1983 0.9308 0.3068
vn 0.1649 0.9364 0.3098
vn 0.1867 -0.9500 0.2503
vn -0.1514 -0.9490 0.2764
vn -0.0005 -0.9983 0.0586
vn 0.9754 -0.0977 0.1976
vn -0.4879 -0.8375 -0.2459
vn 0.3527 -0.8885 -0.2935
vn 0.4489 0.8352 -0.3176
vn -0.9472 0.0674 0.3133
vn -0.3797 0.8926 -0.2430
vn 0.2852 0.7802 0.5566
vn 0.1333 -0.0887 0.9871
vn -0.5383 0.6339 -0.5553
vn 0.2099 -0.7660 0.6076
vn -0.3478 -0.9277 0.1355
vn -0.6967 -0.5929 -0.4038
vn -0.7965 0.4939 0.3486
vn -0.3208 0.9338 0.1583
vn -0.2737 0.1123 0.9552
vn 0.8296 0.4638 -0.3108
vn 0.6276 -0.5954 0.5015
vn 0.4899 -0.6030 -0.6296
vn 0.3625 0.6308 0.6861
vn 0.6072 0.1263 0.7845
vn -0.6822 -0.4720 0.5584
vn 0.2114 0.6316 0.7459
vn -0.7912 0.5597 0.2464
vn 0.3612 -0.6230 0.6938
vn -0.8411 -0.0685 -0.5365
vn 0.1463 -0.1230 0.9816
vn -0.5690 -0.5401 0.6200
vn -0.2954 0.1461 0.9441
vn 0.6115 0.1164 0.7826
vn -0.8586 -0.1632 -0.4859
s 1
f 31/1/1 30/2/2 1/3/3
f 1/3/3 56/4/4 24/5/5
f 1/3/3 54/6/6 31/1/1
f 27/7/7 33/8/8 2/9/9
f 33/8/8 28/10/10 2/9/9
f 2/9/9 60/11/11 27/7/7
f 3/12/12 56/4/4 30/2/2
f 30/2/2 25/13/13 3/12/12
f 25/13/13 21/14/14 3/12/12
f 23/15/15 31/1/1 4/16/16
f 31/1/1 22/17/17 4/16/16
f 4/16/16 55/18/18 23/15/15
f 25/13/13 32/19/19 5/20/20
f 5/20/20 61/21/21 26/22/22
f 26/22/22 25/13/13 5/20/20
f 6/23/23 61/21/21 32/19/19
f 32/19/19 33/8/8 6/23/23
f 6/23/23 58/24/24 29/25/25
f 43/26/26 44/27/27 7/28/28
f 7/28/28 62/29/29 37/30/30
f 7/28/28 64/31/31 43/26/26
f 46/32/32 40/33/33 8/34/34
f 8/34/34 68/35/35 41/36/36
f 41/36/36 46/32/32 8/34/34
f 9/37/37 64/31/31 34/38/38
f 34/38/38 38/39/39 9/37/37
f 38/39/39 43/26/26 9/37/37
f 44/27/27 36/40/40 10/41/41
f 10/41/41 63/42/42 35/43/43
f 35/43/43 44/27/27 10/41/41
f 45/44/44 38/39/39 11/45/45
f 38/39/39 39/46/46 11/45/45
f 11/45/45 69/47/47 45/44/44
f 12/48/48 69/47/47 42/49/49
f 12/48/48 66/50/50 46/32/32
f 46/32/32 45/44/44 12/48/48
f 48/51/51 21/14/14 13/52/52
f 13/52/52 57/53/53 47/54/54
f 13/52/52 65/55/55 34/38/38
f 34/38/38 48/51/51 13/52/52
f 49/56/56 28/10/10 14/57/57
f 14/57/57 68/35/35 49/56/56
f 15/58/58 57/53/53 26/22/22
f 26/22/22 50/59/59 15/58/58
f 50/59/59 39/46/46 15/58/58
f 15/58/58 65/55/55 47/54/54
f 51/60/60 24/5/5 16/61/61
f 16/61/61 56/4/4 48/51/51
f 16/61/61 64/31/31 37/30/30
f 37/30/30 51/60/60 16/61/61
f 52/62/62 22/17/17 17/63/63
f 17/63/63 54/6/6 51/60/60
f 17/63/63 62/29/29 35/43/43
f 35/43/43 52/62/62 17/63/63
f 18/64/64 61/21/21 29/25/25
f 29/25/25 53/65/65 18/64/64
f 53/65/65 42/49/49 18/64/64
f 18/64/64 69/47/47 50/59/59
f 19/66/66 58/24/24 27/7/7
f 27/7/7 49/56/56 19/66/66
f 49/56/56 40/33/33 19/66/66
f 19/66/66 66/50/50 53/65/65
f 23/15/15 52/62/62 20/67/67
f 20/67/67 63/42/42 36/40/40
f 67/68/68 71/69/69 70/70/70
f 72/71/71 73/72/72 59/73/73
f 70/70/70 20/67/67 36/40/40
f 72/71/71 20/67/67 75/74/74
f 73/72/72 14/57/57 28/10/10
f 72/71/71 79/75/75 73/72/72
f 14/57/57 71/69/69 41/36/36
f 75/74/74 78/76/76 72/71/71
f 71/69/69 76/77/77 70/70/70
f 71/69/69 74/78/78 77/79/79
f 74/78/78 79/75/75 77/79/79
f 75/74/74 70/70/70 76/77/77
f 77/79/79 80/80/80 76/77/77
s off
f 82/81/81 91/82/81 80/80/81
s 1
f 79/75/75 85/83/82 77/79/79
f 79/75/75 82/81/83 83/84/84
f 84/85/85 87/86/86 85/83/82
f 81/87/87 85/83/82 87/86/86
s off
f 81/87/88 86/88/88 83/84/88
s 1
f 83/84/84 84/85/85 79/75/75
f 89/89/89 90/90/90 88/91/91
f 76/77/77 88/91/91 78/76/76
f 78/76/76 90/90/90 82/81/83
f 76/77/77 91/82/92 89/89/89
s off
f 80/80/93 94/92/93 82/81/93
s 1
f 95/93/94 92/94/95 93/95/96
f 83/84/84 94/92/97 95/93/94
s off
f 83/84/98 93/95/98 81/87/98
s 1
f 81/87/87 92/94/95 80/80/80
f 31/1/1 59/73/73 30/2/2
f 1/3/3 30/2/2 56/4/4
f 1/3/3 24/5/5 54/6/6
f 27/7/7 58/24/24 33/8/8
f 33/8/8 59/73/73 28/10/10
f 2/9/9 28/10/10 60/11/11
f 3/12/12 21/14/14 56/4/4
f 30/2/2 59/73/73 25/13/13
f 25/13/13 57/53/53 21/14/14
f 23/15/15 59/73/73 31/1/1
f 31/1/1 54/6/6 22/17/17
f 4/16/16 22/17/17 55/18/18
f 25/13/13 59/73/73 32/19/19
f 5/20/20 32/19/19 61/21/21
f 26/22/22 57/53/53 25/13/13
f 6/23/23 29/25/25 61/21/21
f 32/19/19 59/73/73 33/8/8
f 6/23/23 33/8/8 58/24/24
f 43/26/26 67/68/68 44/27/27
f 7/28/28 44/27/27 62/29/29
f 7/28/28 37/30/30 64/31/31
f 46/32/32 66/50/50 40/33/33
f 8/34/34 40/33/33 68/35/35
f 41/36/36 67/68/68 46/32/32
f 9/37/37 43/26/26 64/31/31
f 34/38/38 65/55/55 38/39/39
f 38/39/39 67/68/68 43/26/26
f 44/27/27 67/68/68 36/40/40
f 10/41/41 36/40/40 63/42/42
f 35/43/43 62/29/29 44/27/27
f 45/44/44 67/68/68 38/39/39
f 38/39/39 65/55/55 39/46/46
f 11/45/45 39/46/46 69/47/47
f 12/48/48 45/44/44 69/47/47
f 12/48/48 42/49/49 66/50/50
f 46/32/32 67/68/68 45/44/44
f 48/51/51 56/4/4 21/14/14
f 13/52/52 21/14/14 57/53/53
f 13/52/52 47/54/54 65/55/55
f 34/38/38 64/31/31 48/51/51
f 49/56/56 60/11/11 28/10/10
f 14/57/57 41/36/36 68/35/35
f 15/58/58 47/54/54 57/53/53
f 26/22/22 61/21/21 50/59/59
f 50/59/59 69/47/47 39/46/46
f 15/58/58 39/46/46 65/55/55
f 51/60/60 54/6/6 24/5/5
f 16/61/61 24/5/5 56/4/4
f 16/61/61 48/51/51 64/31/31
f 37/30/30 62/29/29 51/60/60
f 52/62/62 55/18/18 22/17/17
f 17/63/63 22/17/17 54/6/6
f 17/63/63 51/60/60 62/29/29
f 35/43/43 63/42/42 52/62/62
f 18/64/64 50/59/59 61/21/21
f 29/25/25 58/24/24 53/65/65
f 53/65/65 66/50/50 42/49/49
f 18/64/64 42/49/49 69/47/47
f 19/66/66 53/65/65 58/24/24
f 27/7/7 60/11/11 49/56/56
f 49/56/56 68/35/35 40/33/33
f 19/66/66 40/33/33 66/50/50
f 23/15/15 55/18/18 52/62/62
f 20/67/67 52/62/62 63/42/42
f 70/70/70 36/40/40 67/68/68
f 67/68/68 41/36/36 71/69/69
f 59/73/73 23/15/15 72/71/71
f 73/72/72 28/10/10 59/73/73
f 70/70/70 75/74/74 20/67/67
f 72/71/71 23/15/15 20/67/67
f 73/72/72 74/78/78 14/57/57
f 72/71/71 78/76/76 79/75/75
f 14/57/57 74/78/78 71/69/69
f 75/74/74 76/77/77 78/76/76
f 71/69/69 77/79/79 76/77/77
f 74/78/78 73/72/72 79/75/75
f 77/79/79 81/87/87 80/80/80
s off
f 82/81/99 90/90/99 91/82/99
s 1
f 79/75/75 84/85/85 85/83/82
f 79/75/75 78/76/76 82/81/83
f 84/85/85 86/88/100 87/86/86
f 81/87/87 77/79/79 85/83/82
s off
f 81/87/101 87/86/101 86/88/101
s 1
f 83/84/84 86/88/100 84/85/85
f 89/89/89 91/82/92 90/90/90
f 76/77/77 89/89/89 88/91/91
f 78/76/76 88/91/91 90/90/90
f 76/77/77 80/80/80 91/82/92
s off
f 80/80/102 92/94/102 94/92/102
s 1
f 95/93/94 94/92/97 92/94/95
f 83/84/84 82/81/83 94/92/97
s off
f 83/84/103 95/93/103 93/95/103
s 1
f 81/87/87 93/95/96 92/94/95
